<svg viewBox="0 0 115 145" fill="none" xmlns="http://www.w3.org/2000/svg">
  <path
    d="M18.695 1 1 16.65M18.695 1l69.814 23.212M18.695 1l37.841 28.224M18.695 1l-3.023 71m3.023-71 31.972 82.738M1 16.651l5.781 63.306M1 16.651l55.536 12.573M1 16.651l59.04 33.148M1 16.65 15.672 72m-8.89 7.957L12.65 143M6.781 79.957 60.041 49.8M6.78 79.957 15.673 72M6.78 79.957 36.345 96.4M12.65 143l50.807-44.315M12.65 143l3.022-71m-3.022 71 38.017-59.262M12.65 143l23.695-46.6m27.112 2.285L114 54.283M63.457 98.685l-12.79-14.947m12.79 14.947 25.052-74.473M63.457 98.685 36.345 96.4M114 54.283l-25.49-30.07M114 54.282l-53.96-4.484M114 54.283 56.536 29.224M114 54.283 36.345 96.399M88.51 24.212l-31.973 5.012m31.973-5.012L50.667 83.738m9.373-33.94-3.504-20.574M60.04 49.8l-23.695 46.6m14.322-12.66L15.672 72"
    stroke="#FACF9F"
  />
</svg>