<svg viewBox="0 0 143 160" fill="none" xmlns="http://www.w3.org/2000/svg">
  <path
    d="M40.185 159 7.13 117.53M40.185 159 142 139.675M40.185 159l95.767-116.281M40.185 159l-6.047-96.874M7.13 117.53 1 20.574m6.13 96.956 101.65-19.574M7.13 117.53l27.008-55.404M7.13 117.53 142 139.675M1 20.574 102.649 1M1 20.574l107.78 77.382M1 20.574l33.138 41.552M102.648 1l33.303 41.719M102.649 1 34.138 62.127M102.648 1l6.131 96.956M102.649 1 142 139.675m-6.048-96.956L142 139.675m-6.048-96.956L34.138 62.126M142 139.675l-33.22-41.719"
    stroke="#FACF9F"
  />
</svg>