<svg viewBox="0 0 133 132" fill="none" xmlns="http://www.w3.org/2000/svg">
  <path
    d="m19.199 32.51 12.46-16.085M19.2 32.51 1 79.61m18.199-47.1L81.174 1M19.199 32.51l12.379 70.692M19.199 32.51 81.174 54.7M31.66 16.424 81.174 1M31.66 16.425l69.762 12.373M31.66 16.425l20.166 60.958M31.66 16.425 1 79.61M81.174 1 132 52.307M81.174 1l20.248 27.798M81.174 1v53.7M132 52.306l-18.199 47.348M132 52.307l-30.578-23.509M132 52.308l-50.826 2.391M132 52.307l-30.66 63.268m12.461-15.92-12.461 15.92m12.461-15.92-12.379-70.857m12.379 70.857L51.826 77.383m61.975 22.272L51.826 131m49.514-15.425L51.826 131m49.514-15.425-69.762-12.373m69.762 12.373L81.174 54.699M51.826 131 1 79.61M51.826 131V77.383m0 53.617-20.248-27.798M1 79.61l30.578 23.592M1 79.61l50.826-2.227m49.596-48.585L51.826 77.383m-20.248 25.819 49.596-48.503"
    stroke="#FACF9F"
  />
</svg>