<svg viewBox="0 0 118 118" fill="none" xmlns="http://www.w3.org/2000/svg">
  <path
    d="m1.005 78.601 16.22-56.78M1.004 78.6l41.76 36.007M1.005 78.601 42.57 94.402m-41.564-15.8 18.93.908M1.005 78.6l10.117-11.196M1.005 78.6 32.11 36.885M17.224 21.82l58.27-20.613M17.225 21.82l6.13 3.059m-6.13-3.059 58.544-.386m-58.544.386L32.11 36.885M17.224 21.82l-6.102 45.585M75.495 1.207l41.759 36.007M75.494 1.207l-8.46 8.143m8.46-8.143.274 20.227m-.273-20.227L23.354 24.88m52.14-23.672 31.643 47.204m10.117-11.197-16.198 56.703m16.198-56.703L67.034 9.35m50.22 27.864-18.851-.887m18.851.887-10.117 11.197m10.117-11.197L94.963 91.036m6.093 2.881-58.291 20.691m58.291-20.69-2.653-57.591m2.653 57.59-6.093-2.881m6.093 2.881L86.15 78.93m14.906 14.987-49.83 12.548m-8.461 8.143-.196-20.206m.196 20.206L19.935 79.51m22.83 35.098 8.461-8.143m-8.461 8.143L86.15 78.93M42.57 94.402 11.121 67.405m31.447 26.997L86.15 78.93M42.57 94.402l37.529-18.509M42.57 94.403l8.383-8.165M19.935 79.51 32.11 36.885M19.935 79.51l31.291 26.955M19.935 79.51l10.06-11.296M19.935 79.51l18.17-39.686m-26.983 27.58L23.354 24.88M11.122 67.405l18.873.81m-18.873-.81 39.83 18.833M86.15 78.93l-6.052-3.037m6.052 3.037 12.253-42.603M86.15 78.93l2.136-31.406m-8.188 28.37 8.188-28.37m-8.188 28.37 27.039-27.483M80.098 75.893l14.865 15.143M80.098 75.893 50.952 86.238m37.334-38.714L67.328 29.499m20.958 18.025 10.117-11.197M88.286 47.524l-12.518-26.09m12.518 26.09 18.851.887m-39.81-18.912L38.105 39.824m29.224-10.325 31.075 6.828m-31.075-6.828L67.033 9.35m.295 20.15L32.11 36.884m35.218-7.386 8.44-8.065m-37.664 18.39-8.11 28.39m8.11-28.39L67.034 9.35m-28.93 30.474-5.994-2.939m5.994 2.939-14.75-14.945m6.64 43.335 20.958 18.024M29.995 68.214 23.354 24.88m6.64 43.335 21.232 38.251m-.274-20.227 44.01 4.797m-44.01-4.797.274 20.227m43.737-15.43 12.174-42.624M94.963 91.035l-43.737 15.43m55.911-58.054L75.768 21.434m0 0L32.11 36.885m-8.756-12.006L67.034 9.35m0 0 31.369 26.977"
    stroke="#FACF9F"
  />
</svg>